{
    "accessors": [
        {
            "bufferView": 3,
            "byteOffset": 0,
            "componentType": 5123,
            "count": 438,
            "max": [
                437
            ],
            "min": [
                0
            ],
            "name": "accessor_buffer_Cube.044_0",
            "type": "SCALAR"
        },
        {
            "bufferView": 2,
            "byteOffset": 0,
            "componentType": 5126,
            "count": 438,
            "max": [
                0.22954227030277252,
                0.7800067514181137
            ],
            "min": [
                0.1831466555595398,
                0.6842541396617889
            ],
            "name": "accessor_buffer_Cube.044_TEXCOORD_0_0",
            "type": "VEC2"
        },
        {
            "bufferView": 0,
            "byteOffset": 0,
            "componentType": 5126,
            "count": 438,
            "max": [
                70.41487121582031,
                55.493648529052734,
                37.677825927734375
            ],
            "min": [
                -71.05093383789062,
                -57.4277229309082,
                -24.643478393554688
            ],
            "name": "accessor_buffer_Cube.044_POSITION_0",
            "type": "VEC3"
        },
        {
            "bufferView": 1,
            "byteOffset": 0,
            "componentType": 5126,
            "count": 438,
            "max": [
                0.8986338973045349,
                0.9987083673477173,
                0.9952389001846313
            ],
            "min": [
                -0.9041800498962402,
                -0.9726450443267822,
                -0.024943536147475243
            ],
            "name": "accessor_buffer_Cube.044_NORMAL_0",
            "type": "VEC3"
        }
    ],
    "asset": {
        "version": "2.0"
    },
    "bufferViews": [
        {
            "buffer": 0,
            "byteLength": 5256,
            "byteOffset": 0,
            "byteStride": 12,
            "name": "bufferView_buffer_Cube.044_POSITION_0",
            "target": 34962
        },
        {
            "buffer": 0,
            "byteLength": 5256,
            "byteOffset": 5256,
            "byteStride": 12,
            "name": "bufferView_buffer_Cube.044_NORMAL_0",
            "target": 34962
        },
        {
            "buffer": 0,
            "byteLength": 3504,
            "byteOffset": 10512,
            "byteStride": 8,
            "name": "bufferView_buffer_Cube.044_TEXCOORD_0_0",
            "target": 34962
        },
        {
            "buffer": 0,
            "byteLength": 876,
            "byteOffset": 14016,
            "name": "bufferView_buffer_Cube.044_0",
            "target": 34963
        }
    ],
    "buffers": [
        {
            "byteLength": 14892,
            "name": "buffer_holled-mountains",
            "uri": "buffer_holled-mountains.bin"
        }
    ],
    "images": [
        {
            "name": "ColorAtlas.png",
            "uri": "ColorAtlas.png.png"
        },
        {
            "name": "ColorAtlasEmisor.png.001",
            "uri": "ColorAtlasEmisor.png.001.png"
        }
    ],
    "materials": [
        {
            "emissiveFactor": [
                0.0,
                0.0,
                0.0
            ],
            "emissiveTexture": {
                "index": 0,
                "texCoord": 0
            },
            "name": "Material",
            "pbrMetallicRoughness": {
                "baseColorFactor": [
                    0.64000004529953,
                    0.64000004529953,
                    0.64000004529953,
                    1.0
                ],
                "baseColorTexture": {
                    "index": 1,
                    "texCoord": 0
                },
                "metallicFactor": 0.0,
                "roughnessFactor": 1.0
            },
            "doubleSided": true
        }
    ],
    "meshes": [
        {
            "name": "Cube.044",
            "primitives": [
                {
                    "attributes": {
                        "NORMAL": 3,
                        "POSITION": 2,
                        "TEXCOORD_0": 1
                    },
                    "indices": 0,
                    "material": 0,
                    "mode": 4
                }
            ]
        }
    ],
    "nodes": [
        {
            "mesh": 0,
            "name": "Mountain3",
            "rotation": [
                0.0,
                0.0,
                0.9931772351264954,
                0.11661519855260849
            ],
            "scale": [
                1.0,
                1.0,
                1.0
            ],
            "translation": [
                0.0,
                0.0,
                0.0
            ]
        },
        {
            "children": [
                0
            ],
            "matrix": [
                -1.0,
                0.0,
                0.0,
                0.0,
                0.0,
                0.0,
                1.0,
                0.0,
                0.0,
                1.0,
                0.0,
                0.0,
                0.0,
                0.0,
                0.0,
                1.0
            ],
            "name": "Scene_root"
        }
    ],
    "samplers": [
        {
            "magFilter": 9729,
            "minFilter": 9987,
            "name": "Emisor",
            "wrapS": 10497,
            "wrapT": 10497
        },
        {
            "magFilter": 9729,
            "minFilter": 9987,
            "name": "Diffuse",
            "wrapS": 10497,
            "wrapT": 10497
        }
    ],
    "scene": 0,
    "scenes": [
        {
            "extras": {
                "background_color": [
                    0.05087608844041824,
                    0.05087608844041824,
                    0.05087608844041824
                ],
                "character_name": 3,
                "frames_per_second": 24,
                "obj1": "Roundcube",
                "use_cycles": 0,
                "use_lamps": 0
            },
            "name": "Scene",
            "nodes": [
                1
            ]
        }
    ],
    "textures": [
        {
            "name": "Emisor",
            "sampler": 0,
            "source": 1
        },
        {
            "name": "Diffuse",
            "sampler": 1,
            "source": 0
        }
    ]
}
