{
    "accessors": [
        {
            "bufferView": 0,
            "byteOffset": 0,
            "componentType": 5126,
            "count": 4945,
            "max": [
                1.6584830284118652,
                2.8487679958343506,
                1.7178970575332642
            ],
            "min": [
                -1.6520060300827026,
                -3.1765170097351074,
                -1.6029499769210815
            ],
            "name": "accessor_buffer_Horror_Body.000_POSITION_0",
            "type": "VEC3"
        },
        {
            "bufferView": 3,
            "byteOffset": 0,
            "componentType": 5123,
            "count": 5235,
            "max": [
                4944
            ],
            "min": [
                0
            ],
            "name": "accessor_buffer_Horror_Body.000_0",
            "type": "SCALAR"
        },
        {
            "bufferView": 1,
            "byteOffset": 0,
            "componentType": 5126,
            "count": 4945,
            "max": [
                0.9998903870582581,
                0.9994727373123169,
                0.9995587468147278
            ],
            "min": [
                -0.9999173879623413,
                -0.999998927116394,
                -0.9999390244483948
            ],
            "name": "accessor_buffer_Horror_Body.000_NORMAL_0",
            "type": "VEC3"
        },
        {
            "bufferView": 2,
            "byteOffset": 0,
            "componentType": 5126,
            "count": 4945,
            "max": [
                0.9316580295562744,
                0.9829699993133545
            ],
            "min": [
                0.013527000322937965,
                0.010057985782623291
            ],
            "name": "accessor_buffer_Horror_Body.000_TEXCOORD_0_0",
            "type": "VEC2"
        }
    ],
    "asset": {
        "version": "2.0"
    },
    "bufferViews": [
        {
            "buffer": 0,
            "byteLength": 59340,
            "byteOffset": 0,
            "byteStride": 12,
            "name": "bufferView_buffer_Horror_Body.000_POSITION_0",
            "target": 34962
        },
        {
            "buffer": 0,
            "byteLength": 59340,
            "byteOffset": 59340,
            "byteStride": 12,
            "name": "bufferView_buffer_Horror_Body.000_NORMAL_0",
            "target": 34962
        },
        {
            "buffer": 0,
            "byteLength": 39560,
            "byteOffset": 118680,
            "byteStride": 8,
            "name": "bufferView_buffer_Horror_Body.000_TEXCOORD_0_0",
            "target": 34962
        },
        {
            "buffer": 0,
            "byteLength": 10470,
            "byteOffset": 158240,
            "name": "bufferView_buffer_Horror_Body.000_0",
            "target": 34963
        }
    ],
    "buffers": [
        {
            "byteLength": 168710,
            "name": "buffer_cthulhu-low-2",
            "uri": "buffer_cthulhu-low-2.bin"
        }
    ],
    "cameras": [
        {
            "name": "Camera",
            "perspective": {
                "aspectRatio": 1.703595982340029,
                "yfov": 0.5033799409866333,
                "zfar": 100.0,
                "znear": 0.10000000149011612
            },
            "type": "perspective"
        }
    ],
    "materials": [
        {
            "emissiveFactor": [
                0.0,
                0.0,
                0.0
            ],
            "name": "Material.003",
            "pbrMetallicRoughness": {
                "baseColorFactor": [
                    0.009892559610307217,
                    0.19164137542247772,
                    0.0,
                    1.0
                ],
                "metallicFactor": 0.0,
                "roughnessFactor": 1.0
            }
        }
    ],
    "meshes": [
        {
            "name": "Horror_Body.000",
            "primitives": [
                {
                    "attributes": {
                        "NORMAL": 2,
                        "POSITION": 0,
                        "TEXCOORD_0": 3
                    },
                    "indices": 1,
                    "material": 0,
                    "mode": 4
                }
            ]
        }
    ],
    "nodes": [
        {
            "camera": 0,
            "name": "Camera",
            "rotation": [
                0.483536034822464,
                0.20870360732078552,
                0.33687159419059753,
                0.7804827094078064
            ],
            "scale": [
                1.0,
                1.0,
                1.0
            ],
            "translation": [
                7.481131553649902,
                -6.5076398849487305,
                5.34366512298584
            ]
        },
        {
            "mesh": 0,
            "name": "Horror_Body.000",
            "rotation": [
                -1.1520234721729139e-07,
                0.7071068286895752,
                0.7071068286895752,
                -1.1520234011186403e-07
            ],
            "scale": [
                1.0,
                1.0,
                1.0
            ],
            "translation": [
                0.0,
                0.0,
                3.163590431213379
            ]
        },
        {
            "name": "Lamp",
            "rotation": [
                0.16907575726509094,
                0.27217137813568115,
                0.7558802962303162,
                0.570947527885437
            ],
            "scale": [
                1.0,
                0.9999999403953552,
                1.0
            ],
            "translation": [
                4.076245307922363,
                1.0054539442062378,
                5.903861999511719
            ]
        },
        {
            "children": [
                1,
                2,
                0
            ],
            "matrix": [
                -1.0,
                0.0,
                0.0,
                0.0,
                0.0,
                0.0,
                1.0,
                0.0,
                0.0,
                1.0,
                0.0,
                0.0,
                0.0,
                0.0,
                0.0,
                1.0
            ],
            "name": "Scene_root"
        }
    ],
    "scene": 0,
    "scenes": [
        {
            "extras": {
                "active_camera": 0,
                "background_color": [
                    0.05087608844041824,
                    0.05087608844041824,
                    0.05087608844041824
                ],
                "frames_per_second": 30
            },
            "name": "Scene",
            "nodes": [
                3
            ]
        }
    ]
}
