{
    "accessors": [
        {
            "bufferView": 4,
            "byteOffset": 0,
            "componentType": 5123,
            "count": 18252,
            "max": [
                18251
            ],
            "min": [
                0
            ],
            "name": "accessor_buffer_Untitled.002_0",
            "type": "SCALAR"
        },
        {
            "bufferView": 1,
            "byteOffset": 0,
            "componentType": 5126,
            "count": 18252,
            "max": [
                0.9998456239700317,
                0.9995692372322083,
                0.9996597170829773
            ],
            "min": [
                -0.9998456835746765,
                -0.9999902844429016,
                -0.9986788034439087
            ],
            "name": "accessor_buffer_Untitled.002_NORMAL_0",
            "type": "VEC3"
        },
        {
            "bufferView": 3,
            "byteOffset": 0,
            "componentType": 5126,
            "count": 18252,
            "max": [
                1.0,
                1.0,
                1.0
            ],
            "min": [
                1.0,
                1.0,
                1.0
            ],
            "name": "accessor_buffer_Untitled.002_COLOR_0_0",
            "type": "VEC3"
        },
        {
            "bufferView": 0,
            "byteOffset": 0,
            "componentType": 5126,
            "count": 18252,
            "max": [
                18.222949981689453,
                7.796448230743408,
                91.5323486328125
            ],
            "min": [
                -17.25458526611328,
                -18.170387268066406,
                0.04385349899530411
            ],
            "name": "accessor_buffer_Untitled.002_POSITION_0",
            "type": "VEC3"
        },
        {
            "bufferView": 2,
            "byteOffset": 0,
            "componentType": 5126,
            "count": 18252,
            "max": [
                1.9915000200271606,
                1.9567999839782715
            ],
            "min": [
                0.008100000210106373,
                0.008899986743927002
            ],
            "name": "accessor_buffer_Untitled.002_TEXCOORD_0_0",
            "type": "VEC2"
        }
    ],
    "asset": {
        "version": "2.0"
    },
    "bufferViews": [
        {
            "buffer": 0,
            "byteLength": 219024,
            "byteOffset": 0,
            "byteStride": 12,
            "name": "bufferView_buffer_Untitled.002_POSITION_0",
            "target": 34962
        },
        {
            "buffer": 0,
            "byteLength": 219024,
            "byteOffset": 219024,
            "byteStride": 12,
            "name": "bufferView_buffer_Untitled.002_NORMAL_0",
            "target": 34962
        },
        {
            "buffer": 0,
            "byteLength": 146016,
            "byteOffset": 438048,
            "byteStride": 8,
            "name": "bufferView_buffer_Untitled.002_TEXCOORD_0_0",
            "target": 34962
        },
        {
            "buffer": 0,
            "byteLength": 219024,
            "byteOffset": 584064,
            "byteStride": 12,
            "name": "bufferView_buffer_Untitled.002_COLOR_0_0",
            "target": 34962
        },
        {
            "buffer": 0,
            "byteLength": 36504,
            "byteOffset": 803088,
            "name": "bufferView_buffer_Untitled.002_0",
            "target": 34963
        }
    ],
    "buffers": [
        {
            "byteLength": 839592,
            "name": "buffer_ares",
            "uri": "buffer_ares.bin"
        }
    ],
    "cameras": [
        {
            "name": "Camera",
            "perspective": {
                "aspectRatio": 1.703595982340029,
                "yfov": 0.5033799409866333,
                "zfar": 100.0,
                "znear": 0.10000000149011612
            },
            "type": "perspective"
        }
    ],
    "materials": [
        {
            "emissiveFactor": [
                0.05,
                0.05,
                0.05
            ],
            "name": "Material.001",
            "pbrMetallicRoughness": {
                "baseColorFactor": [
                    0.15214164555072784,
                    0.12682832777500153,
                    0.12310250848531723,
                    1.0
                ],
                "metallicFactor": 0.0,
                "roughnessFactor": 1.0
            }
        }
    ],
    "meshes": [
        {
            "name": "Untitled.002",
            "primitives": [
                {
                    "attributes": {
                        "COLOR_0": 2,
                        "NORMAL": 1,
                        "POSITION": 3,
                        "TEXCOORD_0": 4
                    },
                    "indices": 0,
                    "material": 0,
                    "mode": 4
                }
            ]
        }
    ],
    "nodes": [
        {
            "camera": 0,
            "name": "Camera",
            "rotation": [
                0.483536034822464,
                0.20870360732078552,
                0.33687159419059753,
                0.7804827094078064
            ],
            "scale": [
                1.0,
                1.0,
                1.0
            ],
            "translation": [
                7.481131553649902,
                -6.5076398849487305,
                5.34366512298584
            ]
        },
        {
            "name": "Lamp",
            "rotation": [
                0.16907575726509094,
                0.27217137813568115,
                0.7558802962303162,
                0.570947527885437
            ],
            "scale": [
                1.0,
                0.9999999403953552,
                1.0
            ],
            "translation": [
                4.076245307922363,
                1.0054539442062378,
                5.903861999511719
            ]
        },
        {
            "extras": {
                "MaxHandle": 49
            },
            "mesh": 0,
            "name": "posed",
            "rotation": [
                0.0,
                0.0,
                0.0,
                1.0
            ],
            "scale": [
                0.05925425514578819,
                0.05925425514578819,
                0.05925425514578819
            ],
            "translation": [
                0.0,
                0.0,
                0.0
            ]
        },
        {
            "children": [
                1,
                0,
                2
            ],
            "matrix": [
                -1.0,
                0.0,
                0.0,
                0.0,
                0.0,
                0.0,
                1.0,
                0.0,
                0.0,
                1.0,
                0.0,
                0.0,
                0.0,
                0.0,
                0.0,
                1.0
            ],
            "name": "Scene_root"
        }
    ],
    "scene": 0,
    "scenes": [
        {
            "extras": {
                "active_camera": 0,
                "background_color": [
                    0.05087608844041824,
                    0.05087608844041824,
                    0.05087608844041824
                ],
                "frames_per_second": 24
            },
            "name": "Scene",
            "nodes": [
                3
            ]
        }
    ]
}
